# xmcd CD database file
#
# Track frame offsets:
#	150
#	24343
#	36771
#	48751
#	62257
#	75763
#	86799
#	100846
#	111687
#	119915
#	136953
#	147017
#	167038
#	176257
#	197793
#	209851
#	222765
#	239126
#	257649
#	273066
#
# Disc length: 3785 seconds
#
# Revision: 6
# Processed by: cddbd v1.5.1PL2 Copyright (c) Steve Scherf et al.
# Submitted via: CDex 1.51
#
DISCID=1e0ec714
DTITLE=Various Artist - Mondo Bossa
DYEAR=1900
DGENRE=Jazz
TTITLE0=Gimmicks - Ye-Me-Le
TTITLE1=Quarteto Em Cy/Quarteto Em Cy - Tude Que Voce Podia Ser
TTITLE2=Joao Donato - A Ra
TTITLE3=Golden Boys - Berimbau
TTITLE4=Som Tres - Spooky
TTITLE5=Ed Lincoln - Cochise
TTITLE6=Jean Piperre - Vai Vai
TTITLE7=Luiz Carlos - Amazonas
TTITLE8=Bernard Lubat - Bahia Bossa Nova
TTITLE9=Som Imagariario - Mar Azul
TTITLE10=Marcos Valle - Os Grilos
TTITLE11=Antonio Carlos Jobim - Captain Bacardi
TTITLE12=Nelshino E Sua Orchestra - Chove Chuva
TTITLE13=Raulzinho - A Vontade Mesmo
TTITLE14=Os Tres Morais - Freio Aerodinamico
TTITLE15=France Gall and Cesar Camargo Mariano - Zozoi
TTITLE16=Tania Maria - Flio Maravilha
TTITLE17=Fred Jhonson - A Child Runs Free
TTITLE18=Cjbill Shep Arad Featuring Stan Getz - Mad Acout The Bou
TTITLE19=Wilson Simonal - Tude De Voce
EXTD=
EXTT0=
EXTT1=
EXTT2=
EXTT3=
EXTT4=
EXTT5=
EXTT6=
EXTT7=
EXTT8=
EXTT9=
EXTT10=
EXTT11=
EXTT12=
EXTT13=
EXTT14=
EXTT15=
EXTT16=
EXTT17=
EXTT18=
EXTT19=
PLAYORDER=
